<svg width="20" height="23" viewBox="0 0 20 23" fill="none" xmlns="http://www.w3.org/2000/svg">
<path d="M16.5446 12.2236C16.4658 12.147 16.3723 12.0864 16.2695 12.0452C16.1667 12.004 16.0566 11.983 15.9455 11.9834C15.8344 11.9838 15.7244 12.0056 15.6219 12.0475C15.5194 12.0894 15.4264 12.1506 15.3481 12.2277C15.2698 12.3048 15.2078 12.3962 15.1657 12.4966C15.1235 12.5971 15.102 12.7047 15.1024 12.8133C15.1028 12.922 15.1251 13.0294 15.168 13.1296C15.2108 13.2298 15.2735 13.3208 15.3523 13.3973C16.0678 14.0893 16.6358 14.9132 17.0234 15.8212C17.4109 16.7292 17.6103 17.7034 17.6101 18.6873C17.6101 19.6957 14.642 21.167 9.99977 21.167C5.35749 21.167 2.38947 19.6957 2.38947 18.6873C2.38813 17.7099 2.58385 16.7418 2.96543 15.8384C3.34702 14.9349 3.907 14.1139 4.61337 13.4221C4.77086 13.2672 4.85926 13.0577 4.85926 12.8394C4.85926 12.621 4.77086 12.4115 4.61337 12.2566C4.45494 12.1027 4.24062 12.0163 4.01723 12.0163C3.79384 12.0163 3.57952 12.1027 3.42109 12.2566C2.55445 13.099 1.86752 14.1012 1.40012 15.2051C0.932732 16.309 0.694177 17.4926 0.698295 18.6873C0.698295 21.3736 5.49278 22.8201 9.99977 22.8201C14.5068 22.8201 19.3012 21.3736 19.3012 18.6873C19.3045 17.4848 19.0624 16.2939 18.589 15.184C18.1157 14.0741 17.4207 13.0677 16.5446 12.2236Z" fill="black"/>
<path d="M10.0002 12.9015C11.1709 12.9015 12.3153 12.5621 13.2887 11.9264C14.2621 11.2906 15.0207 10.387 15.4687 9.32971C15.9167 8.27247 16.0339 7.10911 15.8056 5.98675C15.5772 4.86439 15.0134 3.83343 14.1856 3.02425C13.3578 2.21508 12.3031 1.66402 11.1549 1.44077C10.0067 1.21752 8.8166 1.3321 7.73502 1.77002C6.65345 2.20794 5.72901 2.94954 5.07861 3.90104C4.4282 4.85253 4.08105 5.97118 4.08105 7.11553C4.08105 8.65006 4.70467 10.1217 5.81472 11.2068C6.92477 12.2919 8.43032 12.9015 10.0002 12.9015ZM10.0002 2.98272C10.8364 2.98272 11.6538 3.2251 12.3491 3.67922C13.0444 4.13334 13.5863 4.7788 13.9063 5.53397C14.2263 6.28914 14.31 7.12011 14.1469 7.9218C13.9837 8.72349 13.5811 9.45989 12.9898 10.0379C12.3985 10.6159 11.6451 11.0095 10.825 11.1689C10.0049 11.3284 9.15476 11.2466 8.38221 10.9338C7.60965 10.6209 6.94934 10.0912 6.48477 9.4116C6.0202 8.73196 5.77223 7.93292 5.77223 7.11553C5.77223 6.01944 6.21767 4.96824 7.01057 4.19319C7.80346 3.41814 8.87885 2.98272 10.0002 2.98272Z" fill="black"/>
</svg>
