<svg width="30" height="30" viewBox="0 0 30 30" fill="none" xmlns="http://www.w3.org/2000/svg">
<path d="M15 0C6.71574 0 0 6.71723 0 15.0006C0 23.2852 6.71574 30 15 30C23.2843 30 30 23.2852 30 15.0006C30 6.71723 23.2837 0 15 0ZM18.9697 14.9379H16.3724C16.3724 19.0887 16.3724 24.2014 16.3724 24.2014H12.5226C12.5226 24.2014 12.5226 19.1411 12.5226 14.9379H10.6916V11.6673H12.5226V9.548C12.5226 8.03119 13.2426 5.66338 16.4083 5.66338L19.2591 5.67434V8.85112C19.2591 8.85112 17.5255 8.85112 17.1892 8.85112C16.8512 8.85112 16.373 9.01986 16.373 9.74111V11.6679H19.3078L18.9697 14.9379Z" fill="white"/>
</svg>
