<svg width="30" height="30" viewBox="0 0 30 30" fill="none" xmlns="http://www.w3.org/2000/svg">
<path d="M14.8782 17.8049C16.36 17.8049 17.5612 16.6037 17.5612 15.122C17.5612 13.6402 16.36 12.439 14.8782 12.439C13.3965 12.439 12.1953 13.6402 12.1953 15.122C12.1953 16.6037 13.3965 17.8049 14.8782 17.8049Z" fill="white"/>
<path d="M18.2315 8.53659H11.5242C10.5486 8.53659 9.69492 8.84147 9.14614 9.39025C8.59736 9.93903 8.29248 10.7927 8.29248 11.7683V18.4756C8.29248 19.4512 8.59736 20.3049 9.20711 20.9146C9.81687 21.4634 10.6096 21.7683 11.5852 21.7683H18.2315C19.2071 21.7683 20.0608 21.4634 20.6096 20.9146C21.2193 20.3659 21.5242 19.5122 21.5242 18.5366V11.8293C21.5242 10.8537 21.2193 10.061 20.6705 9.45122C20.0608 8.84147 19.2681 8.53659 18.2315 8.53659ZM14.8778 19.2683C12.5608 19.2683 10.7315 17.3781 10.7315 15.122C10.7315 12.8049 12.6217 10.9756 14.8778 10.9756C17.1339 10.9756 19.0852 12.8049 19.0852 15.122C19.0852 17.439 17.1949 19.2683 14.8778 19.2683ZM19.2071 11.7683C18.6583 11.7683 18.2315 11.3415 18.2315 10.7927C18.2315 10.2439 18.6583 9.81708 19.2071 9.81708C19.7559 9.81708 20.1827 10.2439 20.1827 10.7927C20.1827 11.3415 19.7559 11.7683 19.2071 11.7683Z" fill="white"/>
<path d="M15 0C6.70732 0 0 6.70732 0 15C0 23.2927 6.70732 30 15 30C23.2927 30 30 23.2927 30 15C30.061 6.70732 23.2927 0 15 0ZM22.9878 18.5366C22.9878 19.939 22.5 21.1585 21.6463 22.0122C20.7927 22.8659 19.5732 23.2927 18.2317 23.2927H11.5854C10.2439 23.2927 9.02439 22.8659 8.17073 22.0122C7.2561 21.1585 6.82927 19.939 6.82927 18.5366V11.8293C6.82927 9.02439 8.71951 7.07317 11.5854 7.07317H18.2927C19.6951 7.07317 20.8537 7.56098 21.7073 8.41463C22.561 9.26829 22.9878 10.4268 22.9878 11.8293V18.5366Z" fill="white"/>
</svg>
