<svg xmlns="http://www.w3.org/2000/svg" viewBox="0 0 390 390" xml:space="preserve"><path style="stroke:#000;stroke-width:0;stroke-linecap:round;stroke-linejoin:round" d="M132.754 257.723h124.492v10.164H132.754zm0 22.889h124.492v10.164H132.754zm18.312 31.103h87.867c6.381 0 11.993-3.268 15.271-8.213h-118.41c3.279 4.945 8.892 8.213 15.272 8.213"/><path style="stroke:#000;stroke-width:0;stroke-linecap:round;stroke-linejoin:round" d="M357.517 103.422h-6.868V91.486a4.58 4.58 0 0 0-4.578-4.578h-30.24a2601 2601 0 0 0-1.895-27.155c-.858-8.89-8.117-16.082-17.142-16.303H93.206c-9.029.22-16.281 7.413-17.146 16.303-.682 9.05-1.305 18.103-1.893 27.155H43.93a4.58 4.58 0 0 0-4.578 4.578v11.936h-6.869c-.778 0-1.41.633-1.41 1.414v42.951c0 .78.632 1.414 1.41 1.414h6.869V164.8a4.58 4.58 0 0 0 4.578 4.578h26.189a2557 2557 0 0 0-1.325 64.05c-17.065 3.5-29.938 18.636-29.938 36.719v53.22c0 20.344 16.292 36.94 36.516 37.455q.745.12 1.519.152v24.251a4.78 4.78 0 0 0 4.774 4.774h30.768a4.78 4.78 0 0 0 4.772-4.774v-24.224h155.592v24.224a4.78 4.78 0 0 0 4.772 4.774h30.768a4.78 4.78 0 0 0 4.775-4.774v-24.251a13 13 0 0 0 1.522-.152c20.221-.519 36.512-17.113 36.512-37.455v-53.22c0-18.082-12.873-33.217-29.938-36.718-.17-21.356-.619-42.706-1.326-64.051h26.189a4.58 4.58 0 0 0 4.578-4.578v-15.599h6.868c.779 0 1.411-.634 1.411-1.414v-42.951c0-.78-.632-1.414-1.411-1.414M96.822 98.106h196.355a2591 2591 0 0 1 4.702 80.526H92.12a2595 2595 0 0 1 4.702-80.526m-48.314 62.116v-11.02h6.865a1.41 1.41 0 0 0 1.41-1.414v-42.951a1.41 1.41 0 0 0-1.41-1.414h-6.865v-7.358h25.073a2590 2590 0 0 0-3.148 64.158H48.508zm12.75 132.821V269.45c0-6.237 5.057-11.294 11.295-11.294h23.592zm206.974-34.524v9.368c0 2.374-.761 4.566-2.041 6.363a10.93 10.93 0 0 1 2.041 6.363v10.164c0 3.375-1.525 6.392-3.92 8.408.566 1.326.883 2.785.883 4.318 0 2.346-.736 4.52-1.989 6.305a29.25 29.25 0 0 1-24.272 12.895h-87.867c-9.848 0-18.979-4.908-24.43-13.129-2.053-3.097-2.367-6.992-.928-10.369a10.96 10.96 0 0 1-3.941-8.427v-10.164c0-2.374.761-4.566 2.041-6.363a10.93 10.93 0 0 1-2.041-6.363v-9.368l-28.893-52.827a2.29 2.29 0 0 1 3.504-2.83l35.173 30.387a29.22 29.22 0 0 1 19.515-7.452h87.867a29.2 29.2 0 0 1 19.514 7.452l35.174-30.388a2.29 2.29 0 0 1 3.504 2.83zm60.51 10.931v23.593l-34.887-34.887h23.592c6.238 0 11.295 5.057 11.295 11.294m12.75-166.028h-6.865a1.41 1.41 0 0 0-1.411 1.414v42.951c0 .78.629 1.414 1.411 1.414h6.865v11.02h-21.924a2595 2595 0 0 0-3.15-64.158h25.074z"/><path style="stroke:#000;stroke-width:0;stroke-linecap:round;stroke-linejoin:round" d="M238.934 236.784h-87.867c-6.381 0-11.993 3.265-15.271 8.213h118.41c-3.279-4.948-8.892-8.213-15.272-8.213M288.007 12.59c0-6.954-5.636-12.59-12.585-12.59h-33.918v5.359a6.295 6.295 0 0 1-6.298 6.292h-80.412a6.295 6.295 0 0 1-6.298-6.292V0h-33.918c-6.949 0-12.585 5.636-12.585 12.59v24.034h186.014z"/></svg>