<?xml version="1.0" standalone="no"?>
<!DOCTYPE svg PUBLIC "-//W3C//DTD SVG 20010904//EN"
 "http://www.w3.org/TR/2001/REC-SVG-20010904/DTD/svg10.dtd">
<svg version="1.0" xmlns="http://www.w3.org/2000/svg"
 width="190.000000pt" height="188.000000pt" viewBox="0 0 190.000000 188.000000"
 preserveAspectRatio="xMidYMid meet">

<g transform="translate(0.000000,188.000000) scale(0.100000,-0.100000)"
fill="#000000" stroke="none">
<path d="M842 1749 c-189 -24 -353 -109 -488 -252 -88 -92 -143 -183 -185
-307 -31 -90 -33 -102 -33 -245 -1 -172 11 -230 74 -361 101 -210 299 -374
527 -436 104 -28 308 -31 402 -5 168 46 266 102 392 227 84 84 101 108 147
200 68 139 86 214 86 370 0 223 -66 394 -217 556 -134 144 -295 225 -500 253
-87 12 -113 12 -205 0z m213 -29 c264 -38 482 -196 600 -435 54 -108 74 -181
82 -297 32 -467 -367 -866 -836 -835 -214 14 -380 93 -533 255 -133 142 -197
297 -205 497 -10 243 58 416 232 590 71 71 109 100 180 137 163 84 312 112
480 88z"/>
<path d="M800 1696 c-366 -79 -619 -383 -621 -747 -1 -184 40 -315 146 -464
112 -159 303 -276 497 -306 89 -14 251 -6 333 16 257 71 469 285 542 545 13
49 17 100 17 205 0 125 -3 149 -27 220 -71 210 -206 369 -392 460 -49 24 -117
51 -150 60 -85 22 -264 28 -345 11z m298 -32 c149 -31 264 -94 377 -208 141
-143 204 -285 213 -483 6 -142 -13 -235 -75 -363 -40 -82 -59 -108 -142 -190
-78 -77 -112 -104 -181 -138 -411 -205 -900 -9 -1045 419 -99 289 -11 601 227
805 167 144 405 204 626 158z"/>
<path d="M795 1561 c-38 -10 -88 -25 -110 -35 l-39 -17 144 -144 145 -145 297
0 c164 0 298 3 298 8 0 4 -17 32 -37 62 -149 223 -440 336 -698 271z m213
-221 c12 0 13 -3 5 -11 -6 -6 -9 -18 -6 -25 8 -22 -41 -12 -50 10 -5 13 -2 23
10 32 10 7 20 8 21 3 2 -5 11 -9 20 -9z m114 -27 c-9 -23 -35 -23 -45 1 -10
26 21 50 40 31 8 -8 10 -21 5 -32z m123 9 c-3 -8 -5 -17 -5 -22 0 -15 -35 -5
-42 13 -11 26 11 48 34 33 10 -6 16 -17 13 -24z m120 0 c-3 -8 -5 -17 -5 -20
0 -4 -11 -8 -25 -8 -14 -1 -22 2 -19 8 3 5 0 15 -6 23 -10 12 -9 15 4 15 9 0
16 5 16 10 0 6 8 5 20 -2 11 -7 18 -19 15 -26z"/>
<path d="M607 1483 c-8 -12 247 -267 262 -262 6 2 -49 64 -123 138 -73 73
-136 129 -139 124z"/>
<path d="M557 1453 c-8 -12 217 -237 232 -232 6 2 -42 57 -108 123 -65 65
-121 114 -124 109z"/>
<path d="M510 1412 c0 -14 185 -192 200 -192 8 0 -30 45 -85 100 -93 94 -115
111 -115 92z"/>
<path d="M466 1371 c-8 -12 139 -151 160 -151 13 0 -6 25 -61 80 -80 80 -89
87 -99 71z"/>
<path d="M435 1330 c-10 -17 87 -113 109 -108 13 2 2 18 -42 61 -41 40 -62 55
-67 47z"/>
<path d="M397 1283 c-11 -11 45 -63 67 -63 17 0 16 5 -14 35 -35 36 -42 40
-53 28z"/>
<path d="M370 1230 c0 -5 5 -10 10 -10 6 0 10 5 10 10 0 6 -4 10 -10 10 -5 0
-10 -4 -10 -10z"/>
<path d="M392 608 c13 -24 57 -77 98 -119 82 -83 190 -145 305 -174 120 -31
326 -11 426 40 l32 17 -139 139 -139 139 -303 0 -303 0 23 -42z m185 -39 c15
-15 4 -49 -17 -49 -21 0 -32 34 -17 49 6 6 14 11 17 11 3 0 11 -5 17 -11z
m117 -1 c20 -19 7 -48 -21 -48 -13 0 -22 4 -18 9 3 5 0 13 -5 16 -7 5 -5 12 7
21 22 17 21 17 37 2z m129 -28 c-6 -23 -51 -23 -55 -1 -2 9 3 21 11 27 20 15
50 -3 44 -26z m110 26 c12 -9 14 -16 7 -21 -5 -3 -8 -10 -5 -14 2 -5 -6 -8
-20 -8 -26 0 -37 24 -20 44 13 15 16 15 38 -1z"/>
<path d="M1146 519 c85 -85 136 -129 144 -124 17 10 -227 255 -255 255 -14 0
17 -37 111 -131z"/>
<path d="M1219 536 c63 -63 119 -112 124 -109 13 8 -204 223 -224 223 -9 0 36
-51 100 -114z"/>
<path d="M1282 553 c54 -53 101 -94 105 -90 9 10 -167 187 -187 187 -8 0 29
-44 82 -97z"/>
<path d="M1342 573 c43 -42 81 -74 85 -70 9 10 -127 147 -147 147 -8 0 20 -35
62 -77z"/>
<path d="M1400 595 c36 -36 58 -51 64 -45 14 14 -72 100 -98 100 -16 0 -9 -11
34 -55z"/>
<path d="M1455 620 c31 -33 45 -38 45 -17 0 19 -33 47 -55 47 -16 0 -15 -4 10
-30z"/>
</g>
</svg>
